<?xml version="1.0" encoding="iso-8859-1"?>
<!-- Generator: Adobe Illustrator 21.1.0, SVG Export Plug-In . SVG Version: 6.00 Build 0)  -->
<svg version="1.1" id="Layer_1" xmlns="http://www.w3.org/2000/svg" xmlns:xlink="http://www.w3.org/1999/xlink" x="0px" y="0px"
	 viewBox="0 0 24 24" enable-background="new 0 0 24 24" xml:space="preserve">
<g>
	<path fill="#303C42" d="M21.9848633,23.3789062l-1-4C20.9291992,19.15625,20.7294922,19,20.5,19H20v-6.0921021
		c0.5807495-0.2070923,1-0.756897,1-1.4078979v-3C21,7.6728516,20.3271484,7,19.5,7H18V6c0-3.3085938-2.6914062-6-6-6
		S6,2.6914062,6,6v1H4.5C3.6728516,7,3,7.6728516,3,8.5v3c0,0.651001,0.4192505,1.2008057,1,1.4078979V19H3.5
		c-0.2294922,0-0.4291992,0.15625-0.4848633,0.3789062l-1,4c-0.0375977,0.1494141-0.0039062,0.3076172,0.0908203,0.4287109
		C2.2006836,23.9291992,2.3461914,24,2.5,24h4C6.7763672,24,7,23.7763672,7,23.5v-6.25177
		c0.1731567,0.0620117,0.3756104,0.1265869,0.6109009,0.1941528l0.5819702,1.7182617
		c0.043457,0.1274414,0.1367188,0.2324219,0.2583008,0.2905273c0.024353,0.0116577,0.3482056,0.1588745,0.9793701,0.2980957
		l-0.4241943,2.6721191c-0.0229492,0.1445312,0.0185547,0.2919922,0.1132812,0.4033203C9.2148438,22.9360352,9.3535156,23,9.5,23h5
		c0.1464844,0,0.2851562-0.0639648,0.3803711-0.175293c0.0947266-0.1113281,0.1362305-0.2587891,0.1132812-0.4033203
		l-0.4241943-2.6721191c0.6311646-0.1392212,0.9550171-0.286438,0.9793701-0.2980957
		c0.1220703-0.0581055,0.2148438-0.1630859,0.2583008-0.2910156l0.5814819-1.7175903
		C16.6241455,17.374939,16.8267212,17.3103027,17,17.24823V23.5c0,0.2763672,0.2236328,0.5,0.5,0.5h4
		c0.1538086,0,0.2993164-0.0708008,0.394043-0.1923828C21.9887695,23.6865234,22.0224609,23.5283203,21.9848633,23.3789062z M19,19
		h-1v-2.5V13h1V19z M19.5,8C19.7758789,8,20,8.2241211,20,8.5v3c0,0.2758789-0.2241211,0.5-0.5,0.5H18V8H19.5z M12,1
		c2.7568359,0,5,2.2431641,5,5v1.177124c-0.3383789,0.1412964-1.0250244,0.3803711-2.0578613,0.5682983l-0.4445801-4.2966919
		C14.4711914,3.1938477,14.2563477,3,14,3h-4C9.7436523,3,9.5288086,3.1938477,9.5024414,3.4487305L9.0578613,7.7454224
		C8.0250244,7.5574951,7.3383789,7.3184204,7,7.177124V6C7,3.2431641,9.2431641,1,12,1z M13.9511108,7.8875122
		C13.3707275,7.9528809,12.7316284,8,12,8s-1.3707275-0.0471191-1.9511108-0.1124878L10.4511719,4h3.0976562L13.9511108,7.8875122z
		 M6,19H5v-6h1v3.5V19z M4,8.5C4,8.2241211,4.2241211,8,4.5,8H6v4H4.5C4.2241211,12,4,11.7758789,4,11.5V8.5z M5,23v-0.5
		C5,22.2236328,4.7763672,22,4.5,22S4,22.2236328,4,22.5V23H3.140625l0.75-3H4.5H6v3H5z M7,8.24823
		C7.8762207,8.5620117,9.5305786,9,12,9s4.1237793-0.4379883,5-0.75177v7.930481C16.3886719,16.4316406,14.7119141,17,12,17
		s-4.3886719-0.5683594-5-0.8212891V8.24823z M13.9145508,22H12.5v-0.5c0-0.2763672-0.2236328-0.5-0.5-0.5s-0.5,0.2236328-0.5,0.5
		V22h-1.4145508l0.3314819-2.0874634C10.8653564,19.9646606,11.3900757,20,12,20s1.1346436-0.0353394,1.5830688-0.0874634
		L13.9145508,22z M14.9350586,18.6171875C14.5576172,18.7441406,13.5981445,19,12,19
		c-1.6000977,0-2.5595703-0.2563477-2.9350586-0.3828125l-0.3074341-0.9075317C9.6187134,17.8730469,10.6900024,18,12,18
		c1.3099365,0,2.3811646-0.1269531,3.2423706-0.2903442L14.9350586,18.6171875z M20,23v-0.5c0-0.2763672-0.2236328-0.5-0.5-0.5
		S19,22.2236328,19,22.5V23h-1v-3h1.5h0.609375l0.75,3H20z"/>
	<circle fill="#303C42" cx="12" cy="6" r="1"/>
	<path fill="#303C42" d="M9.5,12h5c0.2763672,0,0.5-0.2236328,0.5-0.5S14.7763672,11,14.5,11h-5C9.2236328,11,9,11.2236328,9,11.5
		S9.2236328,12,9.5,12z"/>
	<path fill="#303C42" d="M15,14.5c0-0.2763672-0.2236328-0.5-0.5-0.5h-5C9.2236328,14,9,14.2236328,9,14.5S9.2236328,15,9.5,15h5
		C14.7763672,15,15,14.7763672,15,14.5z"/>
	<circle fill="#303C42" cx="15.5" cy="6.5" r="0.5"/>
</g>
<g>
</g>
<g>
</g>
<g>
</g>
<g>
</g>
<g>
</g>
<g>
</g>
<g>
</g>
<g>
</g>
<g>
</g>
<g>
</g>
<g>
</g>
<g>
</g>
<g>
</g>
<g>
</g>
<g>
</g>
</svg>
