<?xml version="1.0" encoding="UTF-8"?>
<!DOCTYPE svg PUBLIC "-//W3C//DTD SVG 1.1//EN" "http://www.w3.org/Graphics/SVG/1.1/DTD/svg11.dtd">
<!-- Creator: CorelDRAW -->
<svg xmlns="http://www.w3.org/2000/svg" xml:space="preserve" width="1.70666in" height="1.70666in" version="1.1" style="shape-rendering:geometricPrecision; text-rendering:geometricPrecision; image-rendering:optimizeQuality; fill-rule:evenodd; clip-rule:evenodd"
viewBox="0 0 1706.66 1706.66"
 xmlns:xlink="http://www.w3.org/1999/xlink"
 xmlns:xodm="http://www.corel.com/coreldraw/odm/2003">
 <defs>
  <style type="text/css">
   <![CDATA[
    .fil3 {fill:#0E9AA7}
    .fil4 {fill:#333333}
    .fil0 {fill:#CED07D}
    .fil2 {fill:#FE6F69}
    .fil1 {fill:#FFCB5B}
   ]]>
  </style>
 </defs>
 <g id="Layer_x0020_1">
  <metadata id="CorelCorpID_0Corel-Layer"/>
  <path class="fil0" d="M1097.47 1012.51c-18.5,-18.45 9.42,-47.08 28.33,-28.33 52.44,51.98 119.42,46.87 103.22,-14.29 -80.86,-28.41 -97.46,-96.44 -95.3,-131.26 1.65,-26.37 41.09,-23.9 39.86,2.36 -0.69,15.39 2.19,70.38 76.98,94.29 2.09,0.49 4.1,1.34 5.94,2.58 67.22,31.06 72.66,99.29 65.27,133.13 -5.56,25.14 -44.33,17.84 -39.02,-8.48 0.97,-4.93 6.57,-37.15 -12.51,-63.79 -10.38,75.2 -104.12,82.12 -172.76,13.78zm-293.05 -321.52c-219.66,111.67 -142.96,244.18 -130.36,389.74 15.06,25.96 105.55,169.81 296.33,244.56 109.3,42.84 168.1,52.4 259.58,171.39 32.45,42.21 33.33,82.26 81.11,97.5 37.2,11.88 80.12,-3.14 112.37,-20.06l-111.13 -105.35c-19.09,-18.1 8.42,-47.26 27.64,-29.03l114.03 108.06c17.3,13.98 57.93,20.21 92.78,-11.25 41.81,-37.78 68.19,-72.78 61.25,-120.69 -11.63,-79.83 -84.11,-153.69 -130.14,-223.61 -48.47,-73.19 -80.97,-140 -123.33,-301.8l-0.42 -2.22c-0.65,-4.29 -14.15,-83.74 -102.56,-146.73 -26.45,-15.78 -56.56,-37.22 -98.97,-48.96 -15.42,-3.47 -142.92,-37.5 -179.3,-210.69 -7.78,-37.36 -26.25,-63.61 -33.19,-65 0.14,0.14 -8.47,4.17 -18.89,34.86 -37.83,111.62 6.56,176.59 -116.8,239.3zm718.05 770.82c-36.39,-34.03 -25.28,-113.75 -23.89,-122.78 3.96,-25.93 43.52,-19.93 39.59,6.11 -4.17,27.78 -3.33,73.33 11.67,87.36 19.73,18.43 -8.9,47.09 -27.36,29.3z"/>
  <path class="fil1" d="M608.87 1225.98c101.32,-192.15 -150.43,-405.14 176.94,-570.55 33.75,-16.94 51.11,-32.5 60.97,-50.56l-78.33 21.81c-58.33,17.5 -140.83,61.81 -202.08,174.17 -127.12,233.29 24.74,240.96 42.5,425.13z"/>
  <path class="fil2" d="M476.22 965.69c-1.98,-46.31 11.87,-103.69 55.56,-184.14 67.22,-124.17 159.72,-173.61 225.28,-193.2 4.58,-1.39 72.64,-20.42 102.5,-28.47 0.6,-4.42 1.3,-10.07 2.13,-16.63 -144.07,-12.47 -288.38,55.5 -389.48,185.24 -120.77,153.57 -162.06,356.6 -112.36,536.38 48.04,173.49 314.06,207.88 423.19,343.89 -4.86,-34.72 -21.11,-75.97 -65.69,-104.58 -169.62,-109.17 -378.47,-283.49 -241.12,-538.49z"/>
  <path class="fil3" d="M336.65 1322.79c-71.94,-190 -39.03,-418.47 83.47,-591.38 -62.52,18.83 -132.81,94.02 -160.39,129.16 -0.94,1.66 -2.12,3.19 -3.53,4.52 -147.83,190.3 -55.06,361.21 12.81,486.18 5.14,9.44 10.14,18.61 14.72,27.36 38.47,72.64 18.33,142.78 -13.06,192.64 112.38,-58.33 81.56,-207.15 65.97,-248.47z"/>
  <path class="fil1" d="M454.28 687.38c111.57,-131.57 260.25,-197.63 413.12,-183.7 0.4,-2.34 0.81,-4.7 1.24,-7.09 -79.05,-21.66 -271.56,-58.74 -372.13,56.07 -137.78,157.36 -234.72,186.8 -245.97,189.86 -12.08,4.03 -90.28,25.69 -165,-42.78 10.09,74.89 64.85,115.83 148.54,129.12 27.86,-33.67 128.88,-147.05 220.2,-141.48z"/>
  <path class="fil2" d="M1532.89 142.52l-429.08 483.02c45.1,32.51 81.35,27.92 148.81,68.8l280.27 -551.82z"/>
  <path class="fil3" d="M1453.17 746.96c-14.63,-79.28 -58.91,-154.8 -84.32,-193.19l-54.37 107c58.49,15.93 101.87,38.24 138.69,86.19z"/>
  <path class="fil4" d="M1499.55 1606.12c-27.7,0 -53.01,-11.07 -65.56,-21.67l-115 -109.03c-19.09,-18.1 8.42,-47.26 27.64,-29.03l114.03 108.06c7.08,4.86 47.5,29.58 92.78,-11.25 41.81,-37.78 68.19,-72.78 61.25,-120.69 -11.63,-79.83 -84.11,-153.69 -130.14,-223.61 -48.47,-73.19 -80.97,-140 -123.33,-301.8 -0.14,-0.69 -0.28,-1.39 -0.42,-2.22 -0.83,-5.56 -23.19,-136.94 -201.53,-195.69 -15.42,-3.47 -142.92,-37.5 -179.3,-210.69 -7.78,-37.36 -26.25,-63.61 -33.19,-65 0.14,0.14 -8.47,4.17 -18.89,34.86 -37.83,111.62 6.56,176.59 -116.8,239.3 -326.92,166.19 2.6,378.57 -199.72,611.38 -12.61,14.5 -36.53,4.29 -35,-14.72 18.14,-225.69 -189.51,-226.91 -37.92,-506.11 67.22,-124.17 159.72,-173.61 225.28,-193.2 4.58,-1.39 72.64,-20.42 102.5,-28.47 5.57,-40.77 18.5,-186.82 82.92,-182.78 39.72,2.36 63.06,64.31 69.86,96.67 32.79,156.05 148.87,179.84 151.81,180.56 196.53,64.17 226.67,210.69 229.44,226.94 40.83,155.69 71.67,219.44 117.78,288.89 49.52,74.86 122.96,147.6 136.39,239.86 10.14,69.58 -31.67,117.92 -74.03,156.11 -27.78,25 -56.11,33.33 -80.84,33.33zm-646.11 -994.57c-31.11,8.61 -72.63,20.14 -78.33,21.81 -58.33,17.5 -140.83,61.81 -202.08,174.17 -127.21,233.55 24.7,240.65 42.5,425.13 101.32,-192.15 -150.43,-405.14 176.94,-570.55 33.75,-16.94 51.11,-32.5 60.97,-50.56z"/>
  <path class="fil4" d="M216.78 1638.62c-18.33,0 -27.19,-23.26 -12.92,-35.28 4.44,-3.75 107.5,-93.33 51.25,-199.3 -4.58,-8.61 -9.44,-17.64 -14.58,-26.94 -69.44,-127.64 -174.17,-320.56 -7.08,-532.5 5,-6.53 122.64,-156.94 227.5,-150.56 116.25,-137.08 272.78,-203.06 432.35,-181.53 26.11,3.58 20.63,43.16 -5.42,39.58 -357.63,-49.14 -644.92,393.67 -506.94,763.61 2.08,5.69 45.42,131.39 -10,227.08 -29.31,50.56 -80,82.64 -150.69,95.56 -1.11,0.14 -2.22,0.28 -3.47,0.28zm210 -900.55c-63.61,19.17 -135.28,96.67 -161.8,130.97 -150.83,191.39 -57.5,363.33 10.69,488.89 5.14,9.44 10.14,18.61 14.72,27.36 38.47,72.64 18.33,142.78 -13.06,192.64 112.38,-58.33 81.56,-207.15 65.97,-248.47 -71.94,-190 -39.03,-418.47 83.47,-591.38z"/>
  <path class="fil4" d="M249.28 876.81c-0.83,0 -1.67,0 -2.5,-0.14 -75.42,-9.58 -130.28,-37.78 -163.19,-84.16 -45.83,-64.44 -30.56,-139.17 -30,-142.36 3.13,-16.13 25.2,-22.12 35.83,-7.5 73.37,100.8 152.65,68.58 157.5,67.78 0.83,-0.14 92.36,-24.72 226.11,-177.5 124.58,-142.36 361.39,-84.17 431.11,-63.06 25.21,7.63 13.61,46.01 -11.67,38.33 -63.74,-19.44 -280.41,-73.19 -389.3,51.11 -137.78,157.36 -234.72,186.8 -245.97,189.86 -12.08,4.03 -90.28,25.69 -165,-42.78 10.52,78.13 69.69,119.32 159.58,130.69 24.74,3.13 22.17,39.72 -2.5,39.72z"/>
  <path class="fil4" d="M806.78 1706.67c-8.47,0 -16.25,-5.42 -18.89,-13.61 -56.96,-172.38 -399.36,-190.94 -459.86,-410.83 -7,-25.44 31.49,-35.91 38.47,-10.69 48.04,173.49 314.06,207.88 423.19,343.89 -4.86,-34.72 -21.11,-75.97 -65.69,-104.58 -170.69,-109.86 -381.11,-285.69 -238.47,-543.33 12.63,-23.03 47.89,-3.76 35,19.44 -125,225.69 54.72,380.56 225.14,490.28 91.39,58.75 92.64,165.83 80.42,214.17 -2.28,8.92 -10.7,15.28 -19.31,15.28z"/>
  <path class="fil4" d="M1346.22 1644.87c-97.36,0 -110.35,-76.94 -141.25,-117.22 -83.75,-109.18 -137.94,-117.88 -242.5,-158.47 -223.61,-87.64 -315.55,-260 -319.44,-267.36 -12.32,-23.48 23.5,-41.79 35.42,-18.47 0.83,1.67 89.44,166.67 298.61,248.61 109.3,42.84 168.1,52.4 259.58,171.39 32.45,42.21 33.33,82.26 81.11,97.5 49.58,15.83 109.31,-16.11 140.42,-36.67 21.91,-14.54 44.15,18.92 22.09,33.47 -29.59,19.31 -81.26,47.22 -134.03,47.22z"/>
  <path class="fil4" d="M1266.91 750.15c-14.6,0 -24.6,-15.72 -17.78,-29.17l290.42 -571.8 -443.06 498.75c-17.61,19.7 -47.28,-7.03 -29.86,-26.53l546.11 -614.72c15.41,-17.35 43.36,1.68 32.78,22.36l-360.83 710.13c-3.47,6.94 -10.56,10.97 -17.78,10.97z"/>
  <path class="fil4" d="M1482.89 852.65c-7.78,0 -14.86,-4.44 -18.19,-11.66 -39.72,-86.53 -79.44,-118.06 -177.22,-140.69 -25.67,-5.97 -16.65,-44.97 9.03,-39.03 71.25,16.53 121.53,37.92 163.33,92.36 -20.83,-112.92 -101.81,-218.19 -102.78,-219.44 -16.11,-20.76 15.43,-45.25 31.53,-24.58 5.42,6.94 132.92,172.5 114.31,325.56 -1.23,10 -9.44,17.49 -20.01,17.49z"/>
  <path class="fil4" d="M1308.86 1093.34c-12.59,0 -22.09,-11.4 -19.44,-24.17 1.39,-7.08 12.36,-70.56 -54.17,-92.78 -79.72,-26.53 -96.94,-97.36 -94.86,-131.11 1.65,-26.37 41.09,-23.9 39.86,2.36 -0.14,3.19 -2.22,67.64 67.64,90.83 81.67,27.22 88.47,102.92 80.56,139.17 -2.08,9.3 -10.27,15.69 -19.58,15.69z"/>
  <path class="fil4" d="M1542.75 1473.9c-4.86,0 -9.86,-1.81 -13.61,-5.42 -36.39,-34.03 -25.28,-113.75 -23.89,-122.78 3.96,-25.93 43.52,-19.93 39.59,6.11 -4.17,27.78 -3.33,73.33 11.67,87.36 13.2,12.32 4.44,34.72 -13.75,34.72z"/>
  <path class="fil4" d="M1204.69 1066.54c-32.36,0 -69.58,-16.53 -100.56,-47.36 -18.5,-18.45 9.42,-47.08 28.33,-28.33 54.77,54.29 125.4,46.3 100.56,-22.78 -8.89,-24.73 28.73,-38.3 37.64,-13.47 21.58,60.15 -7.85,111.95 -65.97,111.95z"/>
 </g>
</svg>
